solid OpenSCAD_Model
  facet normal -0.743143 -0.669133 0
    outer loop
      vertex -26.7652 -29.7258 0
      vertex -32.3607 -23.5114 2
      vertex -32.3607 -23.5114 0
    endloop
  endfacet
  facet normal -0.743143 -0.669133 0
    outer loop
      vertex -32.3607 -23.5114 2
      vertex -26.7652 -29.7258 0
      vertex -26.7652 -29.7258 2
    endloop
  endfacet
  facet normal 0.951056 0.309017 0
    outer loop
      vertex 39.1259 8.31647 2
      vertex 36.5418 16.2695 0
      vertex 36.5418 16.2695 2
    endloop
  endfacet
  facet normal 0.951056 0.309017 0
    outer loop
      vertex 36.5418 16.2695 0
      vertex 39.1259 8.31647 2
      vertex 39.1259 8.31647 0
    endloop
  endfacet
  facet normal 0.994522 0.104529 0
    outer loop
      vertex 40 0 2
      vertex 39.1259 8.31647 0
      vertex 39.1259 8.31647 2
    endloop
  endfacet
  facet normal 0.994522 0.104529 0
    outer loop
      vertex 39.1259 8.31647 0
      vertex 40 0 2
      vertex 40 0 0
    endloop
  endfacet
  facet normal 0.866026 0.499999 0
    outer loop
      vertex 36.5418 16.2695 2
      vertex 32.3607 23.5114 0
      vertex 32.3607 23.5114 2
    endloop
  endfacet
  facet normal 0.866026 0.499999 0
    outer loop
      vertex 32.3607 23.5114 0
      vertex 36.5418 16.2695 2
      vertex 36.5418 16.2695 0
    endloop
  endfacet
  facet normal 0.951056 -0.309017 0
    outer loop
      vertex 36.5418 -16.2695 2
      vertex 39.1259 -8.31647 0
      vertex 39.1259 -8.31647 2
    endloop
  endfacet
  facet normal 0.951056 -0.309017 0
    outer loop
      vertex 39.1259 -8.31647 0
      vertex 36.5418 -16.2695 2
      vertex 36.5418 -16.2695 0
    endloop
  endfacet
  facet normal -0.587785 0.809017 0
    outer loop
      vertex -20 34.641 0
      vertex -26.7652 29.7258 2
      vertex -20 34.641 2
    endloop
  endfacet
  facet normal -0.587785 0.809017 0
    outer loop
      vertex -26.7652 29.7258 2
      vertex -20 34.641 0
      vertex -26.7652 29.7258 0
    endloop
  endfacet
  facet normal 0.587785 -0.809017 0
    outer loop
      vertex 20 -34.641 0
      vertex 26.7652 -29.7258 2
      vertex 20 -34.641 2
    endloop
  endfacet
  facet normal 0.587785 -0.809017 0
    outer loop
      vertex 26.7652 -29.7258 2
      vertex 20 -34.641 0
      vertex 26.7652 -29.7258 0
    endloop
  endfacet
  facet normal 0.743143 -0.669133 0
    outer loop
      vertex 26.7652 -29.7258 2
      vertex 32.3607 -23.5114 0
      vertex 32.3607 -23.5114 2
    endloop
  endfacet
  facet normal 0.743143 -0.669133 0
    outer loop
      vertex 32.3607 -23.5114 0
      vertex 26.7652 -29.7258 2
      vertex 26.7652 -29.7258 0
    endloop
  endfacet
  facet normal 0.994522 -0.104529 0
    outer loop
      vertex 39.1259 -8.31647 2
      vertex 40 0 0
      vertex 40 0 2
    endloop
  endfacet
  facet normal 0.994522 -0.104529 0
    outer loop
      vertex 40 0 0
      vertex 39.1259 -8.31647 2
      vertex 39.1259 -8.31647 0
    endloop
  endfacet
  facet normal -0.406743 -0.913543 0
    outer loop
      vertex -20 -34.641 0
      vertex -12.3607 -38.0423 2
      vertex -20 -34.641 2
    endloop
  endfacet
  facet normal -0.406743 -0.913543 -0
    outer loop
      vertex -12.3607 -38.0423 2
      vertex -20 -34.641 0
      vertex -12.3607 -38.0423 0
    endloop
  endfacet
  facet normal 0.406738 0.913545 -0
    outer loop
      vertex 20 34.641 0
      vertex 12.4556 38 2
      vertex 20 34.641 2
    endloop
  endfacet
  facet normal 0.406738 0.913545 0
    outer loop
      vertex 12.4556 38 2
      vertex 20 34.641 0
      vertex 12.4556 38 0
    endloop
  endfacet
  facet normal 0.743143 0.669133 0
    outer loop
      vertex 32.3607 23.5114 2
      vertex 26.7652 29.7258 0
      vertex 26.7652 29.7258 2
    endloop
  endfacet
  facet normal 0.743143 0.669133 0
    outer loop
      vertex 26.7652 29.7258 0
      vertex 32.3607 23.5114 2
      vertex 32.3607 23.5114 0
    endloop
  endfacet
  facet normal -0.587785 -0.809017 0
    outer loop
      vertex -26.7652 -29.7258 0
      vertex -20 -34.641 2
      vertex -26.7652 -29.7258 2
    endloop
  endfacet
  facet normal -0.587785 -0.809017 -0
    outer loop
      vertex -20 -34.641 2
      vertex -26.7652 -29.7258 0
      vertex -20 -34.641 0
    endloop
  endfacet
  facet normal -0.743143 0.669133 0
    outer loop
      vertex -32.3607 23.5114 0
      vertex -26.7652 29.7258 2
      vertex -26.7652 29.7258 0
    endloop
  endfacet
  facet normal -0.743143 0.669133 0
    outer loop
      vertex -26.7652 29.7258 2
      vertex -32.3607 23.5114 0
      vertex -32.3607 23.5114 2
    endloop
  endfacet
  facet normal 0.406743 -0.913543 0
    outer loop
      vertex 12.3607 -38.0423 0
      vertex 20 -34.641 2
      vertex 12.3607 -38.0423 2
    endloop
  endfacet
  facet normal 0.406743 -0.913543 0
    outer loop
      vertex 20 -34.641 2
      vertex 12.3607 -38.0423 0
      vertex 20 -34.641 0
    endloop
  endfacet
  facet normal 0.207909 -0.978148 0
    outer loop
      vertex 4.18114 -39.7809 0
      vertex 12.3607 -38.0423 2
      vertex 4.18114 -39.7809 2
    endloop
  endfacet
  facet normal 0.207909 -0.978148 0
    outer loop
      vertex 12.3607 -38.0423 2
      vertex 4.18114 -39.7809 0
      vertex 12.3607 -38.0423 0
    endloop
  endfacet
  facet normal -0.951056 0.309017 0
    outer loop
      vertex -39.1259 8.31647 0
      vertex -36.5418 16.2695 2
      vertex -36.5418 16.2695 0
    endloop
  endfacet
  facet normal -0.951056 0.309017 0
    outer loop
      vertex -36.5418 16.2695 2
      vertex -39.1259 8.31647 0
      vertex -39.1259 8.31647 2
    endloop
  endfacet
  facet normal 0 0 -1
    outer loop
      vertex 39.1259 -8.31647 0
      vertex 39.1259 8.31647 0
      vertex 40 0 0
    endloop
  endfacet
  facet normal 0 0 -1
    outer loop
      vertex 36.5418 -16.2695 0
      vertex 39.1259 8.31647 0
      vertex 39.1259 -8.31647 0
    endloop
  endfacet
  facet normal 0 0 -1
    outer loop
      vertex 36.5418 -16.2695 0
      vertex 36.5418 16.2695 0
      vertex 39.1259 8.31647 0
    endloop
  endfacet
  facet normal 0 0 -1
    outer loop
      vertex 32.3607 -23.5114 0
      vertex 36.5418 16.2695 0
      vertex 36.5418 -16.2695 0
    endloop
  endfacet
  facet normal 0 0 -1
    outer loop
      vertex 32.3607 -23.5114 0
      vertex 32.3607 23.5114 0
      vertex 36.5418 16.2695 0
    endloop
  endfacet
  facet normal 0 0 -1
    outer loop
      vertex 26.7652 -29.7258 0
      vertex 32.3607 23.5114 0
      vertex 32.3607 -23.5114 0
    endloop
  endfacet
  facet normal 0 0 -1
    outer loop
      vertex 26.7652 -29.7258 0
      vertex 26.7652 29.7258 0
      vertex 32.3607 23.5114 0
    endloop
  endfacet
  facet normal 0 0 -1
    outer loop
      vertex 20 -34.641 0
      vertex 26.7652 29.7258 0
      vertex 26.7652 -29.7258 0
    endloop
  endfacet
  facet normal 0 0 -1
    outer loop
      vertex 20 -34.641 0
      vertex 20 34.641 0
      vertex 26.7652 29.7258 0
    endloop
  endfacet
  facet normal 0 0 -1
    outer loop
      vertex 20 -34.641 0
      vertex 12.4556 38 0
      vertex 20 34.641 0
    endloop
  endfacet
  facet normal 0 -0 -1
    outer loop
      vertex 12.4556 38 0
      vertex 20 -34.641 0
      vertex 12.3607 -38.0423 0
    endloop
  endfacet
  facet normal 0 0 -1
    outer loop
      vertex 12.4556 38 0
      vertex 15 42 0
      vertex 15 38 0
    endloop
  endfacet
  facet normal 0 0 -1
    outer loop
      vertex 4.18114 -39.7809 0
      vertex 12.4556 38 0
      vertex 12.3607 -38.0423 0
    endloop
  endfacet
  facet normal 0 0 -1
    outer loop
      vertex -4.18114 -39.7809 0
      vertex 12.4556 38 0
      vertex 4.18114 -39.7809 0
    endloop
  endfacet
  facet normal 0 0 -1
    outer loop
      vertex -12.3607 -38.0423 0
      vertex 12.4556 38 0
      vertex -4.18114 -39.7809 0
    endloop
  endfacet
  facet normal 0 0 -1
    outer loop
      vertex -12.4556 38 0
      vertex 12.4556 38 0
      vertex -12.3607 -38.0423 0
    endloop
  endfacet
  facet normal 0 0 -1
    outer loop
      vertex -12.4556 38 0
      vertex 15 42 0
      vertex 12.4556 38 0
    endloop
  endfacet
  facet normal 0 0 -1
    outer loop
      vertex -15 42 0
      vertex -12.4556 38 0
      vertex -15 38 0
    endloop
  endfacet
  facet normal 0 0 -1
    outer loop
      vertex -12.4556 38 0
      vertex -15 42 0
      vertex 15 42 0
    endloop
  endfacet
  facet normal 0 0 -1
    outer loop
      vertex -20 -34.641 0
      vertex -12.4556 38 0
      vertex -12.3607 -38.0423 0
    endloop
  endfacet
  facet normal 0 0 -1
    outer loop
      vertex -20 -34.641 0
      vertex -20 34.641 0
      vertex -12.4556 38 0
    endloop
  endfacet
  facet normal 0 0 -1
    outer loop
      vertex -26.7652 -29.7258 0
      vertex -20 34.641 0
      vertex -20 -34.641 0
    endloop
  endfacet
  facet normal 0 0 -1
    outer loop
      vertex -26.7652 -29.7258 0
      vertex -26.7652 29.7258 0
      vertex -20 34.641 0
    endloop
  endfacet
  facet normal 0 0 -1
    outer loop
      vertex -32.3607 -23.5114 0
      vertex -26.7652 29.7258 0
      vertex -26.7652 -29.7258 0
    endloop
  endfacet
  facet normal 0 0 -1
    outer loop
      vertex -32.3607 -23.5114 0
      vertex -32.3607 23.5114 0
      vertex -26.7652 29.7258 0
    endloop
  endfacet
  facet normal 0 0 -1
    outer loop
      vertex -36.5418 -16.2695 0
      vertex -32.3607 23.5114 0
      vertex -32.3607 -23.5114 0
    endloop
  endfacet
  facet normal 0 0 -1
    outer loop
      vertex -36.5418 -16.2695 0
      vertex -36.5418 16.2695 0
      vertex -32.3607 23.5114 0
    endloop
  endfacet
  facet normal 0 0 -1
    outer loop
      vertex -39.1259 -8.31647 0
      vertex -36.5418 16.2695 0
      vertex -36.5418 -16.2695 0
    endloop
  endfacet
  facet normal 0 0 -1
    outer loop
      vertex -39.1259 -8.31647 0
      vertex -39.1259 8.31647 0
      vertex -36.5418 16.2695 0
    endloop
  endfacet
  facet normal 0 -0 -1
    outer loop
      vertex -39.1259 8.31647 0
      vertex -39.1259 -8.31647 0
      vertex -40 0 0
    endloop
  endfacet
  facet normal -0.951056 -0.309017 0
    outer loop
      vertex -36.5418 -16.2695 0
      vertex -39.1259 -8.31647 2
      vertex -39.1259 -8.31647 0
    endloop
  endfacet
  facet normal -0.951056 -0.309017 0
    outer loop
      vertex -39.1259 -8.31647 2
      vertex -36.5418 -16.2695 0
      vertex -36.5418 -16.2695 2
    endloop
  endfacet
  facet normal -0.406738 0.913545 0
    outer loop
      vertex -12.4556 38 0
      vertex -20 34.641 2
      vertex -12.4556 38 2
    endloop
  endfacet
  facet normal -0.406738 0.913545 0
    outer loop
      vertex -20 34.641 2
      vertex -12.4556 38 0
      vertex -20 34.641 0
    endloop
  endfacet
  facet normal -0 0 1
    outer loop
      vertex -15 42 2
      vertex 15 40.75 2
      vertex 15 42 2
    endloop
  endfacet
  facet normal 0 0 1
    outer loop
      vertex 15 40.75 2
      vertex -15 42 2
      vertex -15 40.75 2
    endloop
  endfacet
  facet normal 0 0 1
    outer loop
      vertex 15 39.25 2
      vertex 12.4556 38 2
      vertex 15 38 2
    endloop
  endfacet
  facet normal 0 0 1
    outer loop
      vertex 12.4556 38 2
      vertex 3.13585 29.8357 2
      vertex 9.27051 28.5317 2
    endloop
  endfacet
  facet normal 0 0 1
    outer loop
      vertex 12.4556 38 2
      vertex -3.13585 29.8357 2
      vertex 3.13585 29.8357 2
    endloop
  endfacet
  facet normal -0 0 1
    outer loop
      vertex -12.4556 38 2
      vertex -3.13585 29.8357 2
      vertex 12.4556 38 2
    endloop
  endfacet
  facet normal 0 0 1
    outer loop
      vertex -12.4556 38 2
      vertex 12.4556 38 2
      vertex 15 39.25 2
    endloop
  endfacet
  facet normal 0 0 1
    outer loop
      vertex -3.13585 29.8357 2
      vertex -12.4556 38 2
      vertex -9.27051 28.5317 2
    endloop
  endfacet
  facet normal -0 0 1
    outer loop
      vertex -15 39.25 2
      vertex -12.4556 38 2
      vertex 15 39.25 2
    endloop
  endfacet
  facet normal 0 0 1
    outer loop
      vertex -12.4556 38 2
      vertex -15 39.25 2
      vertex -15 38 2
    endloop
  endfacet
  facet normal 0 0 1
    outer loop
      vertex 30 0 2
      vertex 40 0 2
      vertex 39.1259 8.31647 2
    endloop
  endfacet
  facet normal 0 0 1
    outer loop
      vertex 29.3444 6.23735 2
      vertex 39.1259 8.31647 2
      vertex 36.5418 16.2695 2
    endloop
  endfacet
  facet normal 0 0 1
    outer loop
      vertex 40 0 2
      vertex 30 0 2
      vertex 39.1259 -8.31647 2
    endloop
  endfacet
  facet normal 0 0 1
    outer loop
      vertex 27.4064 12.2021 2
      vertex 36.5418 16.2695 2
      vertex 32.3607 23.5114 2
    endloop
  endfacet
  facet normal -0 0 1
    outer loop
      vertex 29.3444 -6.23735 2
      vertex 39.1259 -8.31647 2
      vertex 30 0 2
    endloop
  endfacet
  facet normal 0 0 1
    outer loop
      vertex 39.1259 -8.31647 2
      vertex 29.3444 -6.23735 2
      vertex 36.5418 -16.2695 2
    endloop
  endfacet
  facet normal 0 0 1
    outer loop
      vertex 39.1259 8.31647 2
      vertex 29.3444 6.23735 2
      vertex 30 0 2
    endloop
  endfacet
  facet normal 0 0 1
    outer loop
      vertex 36.5418 16.2695 2
      vertex 27.4064 12.2021 2
      vertex 29.3444 6.23735 2
    endloop
  endfacet
  facet normal 0 0 1
    outer loop
      vertex 24.2705 17.6336 2
      vertex 32.3607 23.5114 2
      vertex 26.7652 29.7258 2
    endloop
  endfacet
  facet normal 0 0 1
    outer loop
      vertex 32.3607 23.5114 2
      vertex 24.2705 17.6336 2
      vertex 27.4064 12.2021 2
    endloop
  endfacet
  facet normal 0 0 1
    outer loop
      vertex 26.7652 29.7258 2
      vertex 20.0739 22.2943 2
      vertex 24.2705 17.6336 2
    endloop
  endfacet
  facet normal 0 0 1
    outer loop
      vertex 20 34.641 2
      vertex 20.0739 22.2943 2
      vertex 26.7652 29.7258 2
    endloop
  endfacet
  facet normal 0 0 1
    outer loop
      vertex 20 34.641 2
      vertex 15 25.9808 2
      vertex 20.0739 22.2943 2
    endloop
  endfacet
  facet normal 0 0 1
    outer loop
      vertex 12.4556 38 2
      vertex 15 25.9808 2
      vertex 20 34.641 2
    endloop
  endfacet
  facet normal 0 0 1
    outer loop
      vertex 15 25.9808 2
      vertex 12.4556 38 2
      vertex 9.27051 28.5317 2
    endloop
  endfacet
  facet normal -0 0 1
    outer loop
      vertex 27.4064 -12.2021 2
      vertex 36.5418 -16.2695 2
      vertex 29.3444 -6.23735 2
    endloop
  endfacet
  facet normal 0 0 1
    outer loop
      vertex 36.5418 -16.2695 2
      vertex 27.4064 -12.2021 2
      vertex 32.3607 -23.5114 2
    endloop
  endfacet
  facet normal -0 0 1
    outer loop
      vertex 24.2705 -17.6336 2
      vertex 32.3607 -23.5114 2
      vertex 27.4064 -12.2021 2
    endloop
  endfacet
  facet normal 0 0 1
    outer loop
      vertex 32.3607 -23.5114 2
      vertex 24.2705 -17.6336 2
      vertex 26.7652 -29.7258 2
    endloop
  endfacet
  facet normal -0 0 1
    outer loop
      vertex 20.0739 -22.2943 2
      vertex 26.7652 -29.7258 2
      vertex 24.2705 -17.6336 2
    endloop
  endfacet
  facet normal 0 0 1
    outer loop
      vertex 20.0739 -22.2943 2
      vertex 20 -34.641 2
      vertex 26.7652 -29.7258 2
    endloop
  endfacet
  facet normal -0 0 1
    outer loop
      vertex 15 -25.9808 2
      vertex 20 -34.641 2
      vertex 20.0739 -22.2943 2
    endloop
  endfacet
  facet normal 0 0 1
    outer loop
      vertex 15 -25.9808 2
      vertex 12.3607 -38.0423 2
      vertex 20 -34.641 2
    endloop
  endfacet
  facet normal -0 0 1
    outer loop
      vertex 9.27051 -28.5317 2
      vertex 12.3607 -38.0423 2
      vertex 15 -25.9808 2
    endloop
  endfacet
  facet normal 0 0 1
    outer loop
      vertex 9.27051 -28.5317 2
      vertex 4.18114 -39.7809 2
      vertex 12.3607 -38.0423 2
    endloop
  endfacet
  facet normal -0 0 1
    outer loop
      vertex 3.13585 -29.8357 2
      vertex 4.18114 -39.7809 2
      vertex 9.27051 -28.5317 2
    endloop
  endfacet
  facet normal -0 0 1
    outer loop
      vertex -3.13585 -29.8357 2
      vertex 4.18114 -39.7809 2
      vertex 3.13585 -29.8357 2
    endloop
  endfacet
  facet normal 0 0 1
    outer loop
      vertex -3.13585 -29.8357 2
      vertex -4.18114 -39.7809 2
      vertex 4.18114 -39.7809 2
    endloop
  endfacet
  facet normal 0 0 1
    outer loop
      vertex -9.27051 -28.5317 2
      vertex -4.18114 -39.7809 2
      vertex -3.13585 -29.8357 2
    endloop
  endfacet
  facet normal 0 0 1
    outer loop
      vertex -9.27051 -28.5317 2
      vertex -12.3607 -38.0423 2
      vertex -4.18114 -39.7809 2
    endloop
  endfacet
  facet normal 0 0 1
    outer loop
      vertex -15 -25.9808 2
      vertex -12.3607 -38.0423 2
      vertex -9.27051 -28.5317 2
    endloop
  endfacet
  facet normal 0 0 1
    outer loop
      vertex -15 -25.9808 2
      vertex -20 -34.641 2
      vertex -12.3607 -38.0423 2
    endloop
  endfacet
  facet normal 0 0 1
    outer loop
      vertex -20.0739 -22.2943 2
      vertex -20 -34.641 2
      vertex -15 -25.9808 2
    endloop
  endfacet
  facet normal 0 0 1
    outer loop
      vertex -26.7652 -29.7258 2
      vertex -20.0739 -22.2943 2
      vertex -24.2705 -17.6336 2
    endloop
  endfacet
  facet normal 0 0 1
    outer loop
      vertex -20.0739 -22.2943 2
      vertex -26.7652 -29.7258 2
      vertex -20 -34.641 2
    endloop
  endfacet
  facet normal 0 0 1
    outer loop
      vertex -32.3607 -23.5114 2
      vertex -24.2705 -17.6336 2
      vertex -27.4064 -12.2021 2
    endloop
  endfacet
  facet normal 0 0 1
    outer loop
      vertex -36.5418 -16.2695 2
      vertex -27.4064 -12.2021 2
      vertex -29.3444 -6.23735 2
    endloop
  endfacet
  facet normal 0 0 1
    outer loop
      vertex -24.2705 -17.6336 2
      vertex -32.3607 -23.5114 2
      vertex -26.7652 -29.7258 2
    endloop
  endfacet
  facet normal 0 0 1
    outer loop
      vertex -39.1259 -8.31647 2
      vertex -29.3444 -6.23735 2
      vertex -30 0 2
    endloop
  endfacet
  facet normal -0 0 1
    outer loop
      vertex -39.1259 8.31647 2
      vertex -29.3444 6.23735 2
      vertex -36.5418 16.2695 2
    endloop
  endfacet
  facet normal 0 0 1
    outer loop
      vertex -29.3444 6.23735 2
      vertex -39.1259 8.31647 2
      vertex -30 0 2
    endloop
  endfacet
  facet normal 0 0 1
    outer loop
      vertex -27.4064 -12.2021 2
      vertex -36.5418 -16.2695 2
      vertex -32.3607 -23.5114 2
    endloop
  endfacet
  facet normal 0 0 1
    outer loop
      vertex -40 0 2
      vertex -30 0 2
      vertex -39.1259 8.31647 2
    endloop
  endfacet
  facet normal 0 0 1
    outer loop
      vertex -29.3444 -6.23735 2
      vertex -39.1259 -8.31647 2
      vertex -36.5418 -16.2695 2
    endloop
  endfacet
  facet normal 0 0 1
    outer loop
      vertex -30 0 2
      vertex -40 0 2
      vertex -39.1259 -8.31647 2
    endloop
  endfacet
  facet normal 0 0 1
    outer loop
      vertex -12.4556 38 2
      vertex -15 25.9808 2
      vertex -9.27051 28.5317 2
    endloop
  endfacet
  facet normal -0 0 1
    outer loop
      vertex -20 34.641 2
      vertex -15 25.9808 2
      vertex -12.4556 38 2
    endloop
  endfacet
  facet normal 0 0 1
    outer loop
      vertex -20 34.641 2
      vertex -20.0739 22.2943 2
      vertex -15 25.9808 2
    endloop
  endfacet
  facet normal -0 0 1
    outer loop
      vertex -26.7652 29.7258 2
      vertex -20.0739 22.2943 2
      vertex -20 34.641 2
    endloop
  endfacet
  facet normal 0 0 1
    outer loop
      vertex -20.0739 22.2943 2
      vertex -26.7652 29.7258 2
      vertex -24.2705 17.6336 2
    endloop
  endfacet
  facet normal -0 0 1
    outer loop
      vertex -32.3607 23.5114 2
      vertex -24.2705 17.6336 2
      vertex -26.7652 29.7258 2
    endloop
  endfacet
  facet normal 0 0 1
    outer loop
      vertex -24.2705 17.6336 2
      vertex -32.3607 23.5114 2
      vertex -27.4064 12.2021 2
    endloop
  endfacet
  facet normal 0 0 1
    outer loop
      vertex -27.4064 12.2021 2
      vertex -36.5418 16.2695 2
      vertex -29.3444 6.23735 2
    endloop
  endfacet
  facet normal -0 0 1
    outer loop
      vertex -36.5418 16.2695 2
      vertex -27.4064 12.2021 2
      vertex -32.3607 23.5114 2
    endloop
  endfacet
  facet normal -0.207909 -0.978148 0
    outer loop
      vertex -12.3607 -38.0423 0
      vertex -4.18114 -39.7809 2
      vertex -12.3607 -38.0423 2
    endloop
  endfacet
  facet normal -0.207909 -0.978148 -0
    outer loop
      vertex -4.18114 -39.7809 2
      vertex -12.3607 -38.0423 0
      vertex -4.18114 -39.7809 0
    endloop
  endfacet
  facet normal -0.994522 -0.104529 0
    outer loop
      vertex -39.1259 -8.31647 0
      vertex -40 0 2
      vertex -40 0 0
    endloop
  endfacet
  facet normal -0.994522 -0.104529 0
    outer loop
      vertex -40 0 2
      vertex -39.1259 -8.31647 0
      vertex -39.1259 -8.31647 2
    endloop
  endfacet
  facet normal -0.994522 0.104529 0
    outer loop
      vertex -40 0 0
      vertex -39.1259 8.31647 2
      vertex -39.1259 8.31647 0
    endloop
  endfacet
  facet normal -0.994522 0.104529 0
    outer loop
      vertex -39.1259 8.31647 2
      vertex -40 0 0
      vertex -40 0 2
    endloop
  endfacet
  facet normal -0.866026 -0.499999 0
    outer loop
      vertex -32.3607 -23.5114 0
      vertex -36.5418 -16.2695 2
      vertex -36.5418 -16.2695 0
    endloop
  endfacet
  facet normal -0.866026 -0.499999 0
    outer loop
      vertex -36.5418 -16.2695 2
      vertex -32.3607 -23.5114 0
      vertex -32.3607 -23.5114 2
    endloop
  endfacet
  facet normal -0.866026 0.499999 0
    outer loop
      vertex -36.5418 16.2695 0
      vertex -32.3607 23.5114 2
      vertex -32.3607 23.5114 0
    endloop
  endfacet
  facet normal -0.866026 0.499999 0
    outer loop
      vertex -32.3607 23.5114 2
      vertex -36.5418 16.2695 0
      vertex -36.5418 16.2695 2
    endloop
  endfacet
  facet normal 0.866026 -0.499999 0
    outer loop
      vertex 32.3607 -23.5114 2
      vertex 36.5418 -16.2695 0
      vertex 36.5418 -16.2695 2
    endloop
  endfacet
  facet normal 0.866026 -0.499999 0
    outer loop
      vertex 36.5418 -16.2695 0
      vertex 32.3607 -23.5114 2
      vertex 32.3607 -23.5114 0
    endloop
  endfacet
  facet normal 0.587785 0.809017 -0
    outer loop
      vertex 26.7652 29.7258 0
      vertex 20 34.641 2
      vertex 26.7652 29.7258 2
    endloop
  endfacet
  facet normal 0.587785 0.809017 0
    outer loop
      vertex 20 34.641 2
      vertex 26.7652 29.7258 0
      vertex 20 34.641 0
    endloop
  endfacet
  facet normal 0 -1 0
    outer loop
      vertex -4.18114 -39.7809 0
      vertex 4.18114 -39.7809 2
      vertex -4.18114 -39.7809 2
    endloop
  endfacet
  facet normal 0 -1 -0
    outer loop
      vertex 4.18114 -39.7809 2
      vertex -4.18114 -39.7809 0
      vertex 4.18114 -39.7809 0
    endloop
  endfacet
  facet normal 0.587795 0.80901 -0
    outer loop
      vertex 20.0739 22.2943 2
      vertex 15 25.9808 2.5
      vertex 20.0739 22.2943 2.5
    endloop
  endfacet
  facet normal 0.587795 0.80901 0
    outer loop
      vertex 15 25.9808 2.5
      vertex 20.0739 22.2943 2
      vertex 15 25.9808 2
    endloop
  endfacet
  facet normal -0.866024 0.500003 0
    outer loop
      vertex -27.4064 12.2021 2
      vertex -24.2705 17.6336 2.5
      vertex -24.2705 17.6336 2
    endloop
  endfacet
  facet normal -0.866024 0.500003 0
    outer loop
      vertex -24.2705 17.6336 2.5
      vertex -27.4064 12.2021 2
      vertex -27.4064 12.2021 2.5
    endloop
  endfacet
  facet normal 0.994521 -0.104533 0
    outer loop
      vertex 29.3444 -6.23735 2.5
      vertex 30 0 2
      vertex 30 0 2.5
    endloop
  endfacet
  facet normal 0.994521 -0.104533 0
    outer loop
      vertex 30 0 2
      vertex 29.3444 -6.23735 2.5
      vertex 29.3444 -6.23735 2
    endloop
  endfacet
  facet normal 0.587795 -0.80901 0
    outer loop
      vertex 15 -25.9808 2
      vertex 20.0739 -22.2943 2.5
      vertex 15 -25.9808 2.5
    endloop
  endfacet
  facet normal 0.587795 -0.80901 0
    outer loop
      vertex 20.0739 -22.2943 2.5
      vertex 15 -25.9808 2
      vertex 20.0739 -22.2943 2
    endloop
  endfacet
  facet normal 0.866024 0.500003 0
    outer loop
      vertex 27.4064 12.2021 2.5
      vertex 24.2705 17.6336 2
      vertex 24.2705 17.6336 2.5
    endloop
  endfacet
  facet normal 0.866024 0.500003 0
    outer loop
      vertex 24.2705 17.6336 2
      vertex 27.4064 12.2021 2.5
      vertex 27.4064 12.2021 2
    endloop
  endfacet
  facet normal -0.994521 0.104533 0
    outer loop
      vertex -30 0 2
      vertex -29.3444 6.23735 2.5
      vertex -29.3444 6.23735 2
    endloop
  endfacet
  facet normal -0.994521 0.104533 0
    outer loop
      vertex -29.3444 6.23735 2.5
      vertex -30 0 2
      vertex -30 0 2.5
    endloop
  endfacet
  facet normal 0.994521 0.104533 0
    outer loop
      vertex 30 0 2.5
      vertex 29.3444 6.23735 2
      vertex 29.3444 6.23735 2.5
    endloop
  endfacet
  facet normal 0.994521 0.104533 0
    outer loop
      vertex 29.3444 6.23735 2
      vertex 30 0 2.5
      vertex 30 0 2
    endloop
  endfacet
  facet normal -0.866024 -0.500003 0
    outer loop
      vertex -24.2705 -17.6336 2
      vertex -27.4064 -12.2021 2.5
      vertex -27.4064 -12.2021 2
    endloop
  endfacet
  facet normal -0.866024 -0.500003 0
    outer loop
      vertex -27.4064 -12.2021 2.5
      vertex -24.2705 -17.6336 2
      vertex -24.2705 -17.6336 2.5
    endloop
  endfacet
  facet normal -0.743138 -0.669138 0
    outer loop
      vertex -20.0739 -22.2943 2
      vertex -24.2705 -17.6336 2.5
      vertex -24.2705 -17.6336 2
    endloop
  endfacet
  facet normal -0.743138 -0.669138 0
    outer loop
      vertex -24.2705 -17.6336 2.5
      vertex -20.0739 -22.2943 2
      vertex -20.0739 -22.2943 2.5
    endloop
  endfacet
  facet normal -0.95106 0.309008 0
    outer loop
      vertex -29.3444 6.23735 2
      vertex -27.4064 12.2021 2.5
      vertex -27.4064 12.2021 2
    endloop
  endfacet
  facet normal -0.95106 0.309008 0
    outer loop
      vertex -27.4064 12.2021 2.5
      vertex -29.3444 6.23735 2
      vertex -29.3444 6.23735 2.5
    endloop
  endfacet
  facet normal 0 -1 0
    outer loop
      vertex -3.13585 -29.8357 2
      vertex 3.13585 -29.8357 2.5
      vertex -3.13585 -29.8357 2.5
    endloop
  endfacet
  facet normal 0 -1 -0
    outer loop
      vertex 3.13585 -29.8357 2.5
      vertex -3.13585 -29.8357 2
      vertex 3.13585 -29.8357 2
    endloop
  endfacet
  facet normal 0.406732 -0.913547 0
    outer loop
      vertex 9.27051 -28.5317 2
      vertex 15 -25.9808 2.5
      vertex 9.27051 -28.5317 2.5
    endloop
  endfacet
  facet normal 0.406732 -0.913547 0
    outer loop
      vertex 15 -25.9808 2.5
      vertex 9.27051 -28.5317 2
      vertex 15 -25.9808 2
    endloop
  endfacet
  facet normal -0.207917 0.978146 0
    outer loop
      vertex -3.13585 29.8357 2
      vertex -9.27051 28.5317 2.5
      vertex -3.13585 29.8357 2.5
    endloop
  endfacet
  facet normal -0.207917 0.978146 0
    outer loop
      vertex -9.27051 28.5317 2.5
      vertex -3.13585 29.8357 2
      vertex -9.27051 28.5317 2
    endloop
  endfacet
  facet normal 0.95106 0.309008 0
    outer loop
      vertex 29.3444 6.23735 2.5
      vertex 27.4064 12.2021 2
      vertex 27.4064 12.2021 2.5
    endloop
  endfacet
  facet normal 0.95106 0.309008 0
    outer loop
      vertex 27.4064 12.2021 2
      vertex 29.3444 6.23735 2.5
      vertex 29.3444 6.23735 2
    endloop
  endfacet
  facet normal 0.207917 -0.978146 0
    outer loop
      vertex 3.13585 -29.8357 2
      vertex 9.27051 -28.5317 2.5
      vertex 3.13585 -29.8357 2.5
    endloop
  endfacet
  facet normal 0.207917 -0.978146 0
    outer loop
      vertex 9.27051 -28.5317 2.5
      vertex 3.13585 -29.8357 2
      vertex 9.27051 -28.5317 2
    endloop
  endfacet
  facet normal 0.95106 -0.309008 0
    outer loop
      vertex 27.4064 -12.2021 2.5
      vertex 29.3444 -6.23735 2
      vertex 29.3444 -6.23735 2.5
    endloop
  endfacet
  facet normal 0.95106 -0.309008 0
    outer loop
      vertex 29.3444 -6.23735 2
      vertex 27.4064 -12.2021 2.5
      vertex 27.4064 -12.2021 2
    endloop
  endfacet
  facet normal 0.406732 0.913547 -0
    outer loop
      vertex 15 25.9808 2
      vertex 9.27051 28.5317 2.5
      vertex 15 25.9808 2.5
    endloop
  endfacet
  facet normal 0.406732 0.913547 0
    outer loop
      vertex 9.27051 28.5317 2.5
      vertex 15 25.9808 2
      vertex 9.27051 28.5317 2
    endloop
  endfacet
  facet normal -0.406732 0.913547 0
    outer loop
      vertex -9.27051 28.5317 2
      vertex -15 25.9808 2.5
      vertex -9.27051 28.5317 2.5
    endloop
  endfacet
  facet normal -0.406732 0.913547 0
    outer loop
      vertex -15 25.9808 2.5
      vertex -9.27051 28.5317 2
      vertex -15 25.9808 2
    endloop
  endfacet
  facet normal 0.866024 -0.500003 0
    outer loop
      vertex 24.2705 -17.6336 2.5
      vertex 27.4064 -12.2021 2
      vertex 27.4064 -12.2021 2.5
    endloop
  endfacet
  facet normal 0.866024 -0.500003 0
    outer loop
      vertex 27.4064 -12.2021 2
      vertex 24.2705 -17.6336 2.5
      vertex 24.2705 -17.6336 2
    endloop
  endfacet
  facet normal -0.406732 -0.913547 0
    outer loop
      vertex -15 -25.9808 2
      vertex -9.27051 -28.5317 2.5
      vertex -15 -25.9808 2.5
    endloop
  endfacet
  facet normal -0.406732 -0.913547 -0
    outer loop
      vertex -9.27051 -28.5317 2.5
      vertex -15 -25.9808 2
      vertex -9.27051 -28.5317 2
    endloop
  endfacet
  facet normal 0.743138 -0.669138 0
    outer loop
      vertex 20.0739 -22.2943 2.5
      vertex 24.2705 -17.6336 2
      vertex 24.2705 -17.6336 2.5
    endloop
  endfacet
  facet normal 0.743138 -0.669138 0
    outer loop
      vertex 24.2705 -17.6336 2
      vertex 20.0739 -22.2943 2.5
      vertex 20.0739 -22.2943 2
    endloop
  endfacet
  facet normal 0.743138 0.669138 0
    outer loop
      vertex 24.2705 17.6336 2.5
      vertex 20.0739 22.2943 2
      vertex 20.0739 22.2943 2.5
    endloop
  endfacet
  facet normal 0.743138 0.669138 0
    outer loop
      vertex 20.0739 22.2943 2
      vertex 24.2705 17.6336 2.5
      vertex 24.2705 17.6336 2
    endloop
  endfacet
  facet normal 0.207917 0.978146 -0
    outer loop
      vertex 9.27051 28.5317 2
      vertex 3.13585 29.8357 2.5
      vertex 9.27051 28.5317 2.5
    endloop
  endfacet
  facet normal 0.207917 0.978146 0
    outer loop
      vertex 3.13585 29.8357 2.5
      vertex 9.27051 28.5317 2
      vertex 3.13585 29.8357 2
    endloop
  endfacet
  facet normal -0.95106 -0.309008 0
    outer loop
      vertex -27.4064 -12.2021 2
      vertex -29.3444 -6.23735 2.5
      vertex -29.3444 -6.23735 2
    endloop
  endfacet
  facet normal -0.95106 -0.309008 0
    outer loop
      vertex -29.3444 -6.23735 2.5
      vertex -27.4064 -12.2021 2
      vertex -27.4064 -12.2021 2.5
    endloop
  endfacet
  facet normal -0.587795 -0.80901 0
    outer loop
      vertex -20.0739 -22.2943 2
      vertex -15 -25.9808 2.5
      vertex -20.0739 -22.2943 2.5
    endloop
  endfacet
  facet normal -0.587795 -0.80901 -0
    outer loop
      vertex -15 -25.9808 2.5
      vertex -20.0739 -22.2943 2
      vertex -15 -25.9808 2
    endloop
  endfacet
  facet normal -0.743138 0.669138 0
    outer loop
      vertex -24.2705 17.6336 2
      vertex -20.0739 22.2943 2.5
      vertex -20.0739 22.2943 2
    endloop
  endfacet
  facet normal -0.743138 0.669138 0
    outer loop
      vertex -20.0739 22.2943 2.5
      vertex -24.2705 17.6336 2
      vertex -24.2705 17.6336 2.5
    endloop
  endfacet
  facet normal -0.587795 0.80901 0
    outer loop
      vertex -15 25.9808 2
      vertex -20.0739 22.2943 2.5
      vertex -15 25.9808 2.5
    endloop
  endfacet
  facet normal -0.587795 0.80901 0
    outer loop
      vertex -20.0739 22.2943 2.5
      vertex -15 25.9808 2
      vertex -20.0739 22.2943 2
    endloop
  endfacet
  facet normal -0.994521 -0.104533 0
    outer loop
      vertex -29.3444 -6.23735 2
      vertex -30 0 2.5
      vertex -30 0 2
    endloop
  endfacet
  facet normal -0.994521 -0.104533 0
    outer loop
      vertex -30 0 2.5
      vertex -29.3444 -6.23735 2
      vertex -29.3444 -6.23735 2.5
    endloop
  endfacet
  facet normal 0 1 -0
    outer loop
      vertex 3.13585 29.8357 2
      vertex -3.13585 29.8357 2.5
      vertex 3.13585 29.8357 2.5
    endloop
  endfacet
  facet normal 0 1 0
    outer loop
      vertex -3.13585 29.8357 2.5
      vertex 3.13585 29.8357 2
      vertex -3.13585 29.8357 2
    endloop
  endfacet
  facet normal -0.207917 -0.978146 0
    outer loop
      vertex -9.27051 -28.5317 2
      vertex -3.13585 -29.8357 2.5
      vertex -9.27051 -28.5317 2.5
    endloop
  endfacet
  facet normal -0.207917 -0.978146 -0
    outer loop
      vertex -3.13585 -29.8357 2.5
      vertex -9.27051 -28.5317 2
      vertex -3.13585 -29.8357 2
    endloop
  endfacet
  facet normal 0 0 1
    outer loop
      vertex 20 0 2.5
      vertex 30 0 2.5
      vertex 29.3444 6.23735 2.5
    endloop
  endfacet
  facet normal 0 0 1
    outer loop
      vertex 19.563 4.15823 2.5
      vertex 29.3444 6.23735 2.5
      vertex 27.4064 12.2021 2.5
    endloop
  endfacet
  facet normal 0 0 1
    outer loop
      vertex 30 0 2.5
      vertex 20 0 2.5
      vertex 29.3444 -6.23735 2.5
    endloop
  endfacet
  facet normal 0 0 1
    outer loop
      vertex 18.2709 8.13473 2.5
      vertex 27.4064 12.2021 2.5
      vertex 24.2705 17.6336 2.5
    endloop
  endfacet
  facet normal -0 0 1
    outer loop
      vertex 19.563 -4.15823 2.5
      vertex 29.3444 -6.23735 2.5
      vertex 20 0 2.5
    endloop
  endfacet
  facet normal 0 0 1
    outer loop
      vertex 16.1803 11.7557 2.5
      vertex 24.2705 17.6336 2.5
      vertex 20.0739 22.2943 2.5
    endloop
  endfacet
  facet normal 0 0 1
    outer loop
      vertex 29.3444 -6.23735 2.5
      vertex 19.563 -4.15823 2.5
      vertex 27.4064 -12.2021 2.5
    endloop
  endfacet
  facet normal -0 0 1
    outer loop
      vertex 18.2709 -8.13473 2.5
      vertex 27.4064 -12.2021 2.5
      vertex 19.563 -4.15823 2.5
    endloop
  endfacet
  facet normal 0 0 1
    outer loop
      vertex 29.3444 6.23735 2.5
      vertex 19.563 4.15823 2.5
      vertex 20 0 2.5
    endloop
  endfacet
  facet normal 0 0 1
    outer loop
      vertex 27.4064 12.2021 2.5
      vertex 18.2709 8.13473 2.5
      vertex 19.563 4.15823 2.5
    endloop
  endfacet
  facet normal 0 0 1
    outer loop
      vertex 24.2705 17.6336 2.5
      vertex 16.1803 11.7557 2.5
      vertex 18.2709 8.13473 2.5
    endloop
  endfacet
  facet normal 0 0 1
    outer loop
      vertex 13.3826 14.8629 2.5
      vertex 20.0739 22.2943 2.5
      vertex 15 25.9808 2.5
    endloop
  endfacet
  facet normal 0 0 1
    outer loop
      vertex 20.0739 22.2943 2.5
      vertex 13.3826 14.8629 2.5
      vertex 16.1803 11.7557 2.5
    endloop
  endfacet
  facet normal 0 0 1
    outer loop
      vertex 15 25.9808 2.5
      vertex 10 17.3205 2.5
      vertex 13.3826 14.8629 2.5
    endloop
  endfacet
  facet normal 0 0 1
    outer loop
      vertex 9.27051 28.5317 2.5
      vertex 10 17.3205 2.5
      vertex 15 25.9808 2.5
    endloop
  endfacet
  facet normal 0 0 1
    outer loop
      vertex 9.27051 28.5317 2.5
      vertex 6.18034 19.0211 2.5
      vertex 10 17.3205 2.5
    endloop
  endfacet
  facet normal 0 0 1
    outer loop
      vertex 3.13585 29.8357 2.5
      vertex 6.18034 19.0211 2.5
      vertex 9.27051 28.5317 2.5
    endloop
  endfacet
  facet normal 0 0 1
    outer loop
      vertex 3.13585 29.8357 2.5
      vertex 2.09057 19.8904 2.5
      vertex 6.18034 19.0211 2.5
    endloop
  endfacet
  facet normal 0 0 1
    outer loop
      vertex 3.13585 29.8357 2.5
      vertex -2.09057 19.8904 2.5
      vertex 2.09057 19.8904 2.5
    endloop
  endfacet
  facet normal -0 0 1
    outer loop
      vertex -3.13585 29.8357 2.5
      vertex -2.09057 19.8904 2.5
      vertex 3.13585 29.8357 2.5
    endloop
  endfacet
  facet normal 0 0 1
    outer loop
      vertex -3.13585 29.8357 2.5
      vertex -6.18034 19.0211 2.5
      vertex -2.09057 19.8904 2.5
    endloop
  endfacet
  facet normal -0 0 1
    outer loop
      vertex -9.27051 28.5317 2.5
      vertex -6.18034 19.0211 2.5
      vertex -3.13585 29.8357 2.5
    endloop
  endfacet
  facet normal 0 0 1
    outer loop
      vertex -9.27051 28.5317 2.5
      vertex -10 17.3205 2.5
      vertex -6.18034 19.0211 2.5
    endloop
  endfacet
  facet normal -0 0 1
    outer loop
      vertex -15 25.9808 2.5
      vertex -10 17.3205 2.5
      vertex -9.27051 28.5317 2.5
    endloop
  endfacet
  facet normal 0 0 1
    outer loop
      vertex -10 17.3205 2.5
      vertex -15 25.9808 2.5
      vertex -13.3826 14.8629 2.5
    endloop
  endfacet
  facet normal -0 0 1
    outer loop
      vertex -20.0739 22.2943 2.5
      vertex -13.3826 14.8629 2.5
      vertex -15 25.9808 2.5
    endloop
  endfacet
  facet normal 0 0 1
    outer loop
      vertex -13.3826 14.8629 2.5
      vertex -20.0739 22.2943 2.5
      vertex -16.1803 11.7557 2.5
    endloop
  endfacet
  facet normal -0 0 1
    outer loop
      vertex -24.2705 17.6336 2.5
      vertex -16.1803 11.7557 2.5
      vertex -20.0739 22.2943 2.5
    endloop
  endfacet
  facet normal -0 0 1
    outer loop
      vertex -27.4064 12.2021 2.5
      vertex -18.2709 8.13473 2.5
      vertex -24.2705 17.6336 2.5
    endloop
  endfacet
  facet normal 0 0 1
    outer loop
      vertex -16.1803 11.7557 2.5
      vertex -24.2705 17.6336 2.5
      vertex -18.2709 8.13473 2.5
    endloop
  endfacet
  facet normal 0 0 1
    outer loop
      vertex 27.4064 -12.2021 2.5
      vertex 18.2709 -8.13473 2.5
      vertex 24.2705 -17.6336 2.5
    endloop
  endfacet
  facet normal -0 0 1
    outer loop
      vertex 16.1803 -11.7557 2.5
      vertex 24.2705 -17.6336 2.5
      vertex 18.2709 -8.13473 2.5
    endloop
  endfacet
  facet normal 0 0 1
    outer loop
      vertex 24.2705 -17.6336 2.5
      vertex 16.1803 -11.7557 2.5
      vertex 20.0739 -22.2943 2.5
    endloop
  endfacet
  facet normal -0 0 1
    outer loop
      vertex 13.3826 -14.8629 2.5
      vertex 20.0739 -22.2943 2.5
      vertex 16.1803 -11.7557 2.5
    endloop
  endfacet
  facet normal 0 0 1
    outer loop
      vertex 20.0739 -22.2943 2.5
      vertex 13.3826 -14.8629 2.5
      vertex 15 -25.9808 2.5
    endloop
  endfacet
  facet normal -0 0 1
    outer loop
      vertex 10 -17.3205 2.5
      vertex 15 -25.9808 2.5
      vertex 13.3826 -14.8629 2.5
    endloop
  endfacet
  facet normal 0 0 1
    outer loop
      vertex 10 -17.3205 2.5
      vertex 9.27051 -28.5317 2.5
      vertex 15 -25.9808 2.5
    endloop
  endfacet
  facet normal -0 0 1
    outer loop
      vertex 6.18034 -19.0211 2.5
      vertex 9.27051 -28.5317 2.5
      vertex 10 -17.3205 2.5
    endloop
  endfacet
  facet normal 0 0 1
    outer loop
      vertex 6.18034 -19.0211 2.5
      vertex 3.13585 -29.8357 2.5
      vertex 9.27051 -28.5317 2.5
    endloop
  endfacet
  facet normal -0 0 1
    outer loop
      vertex 2.09057 -19.8904 2.5
      vertex 3.13585 -29.8357 2.5
      vertex 6.18034 -19.0211 2.5
    endloop
  endfacet
  facet normal -0 0 1
    outer loop
      vertex -2.09057 -19.8904 2.5
      vertex 3.13585 -29.8357 2.5
      vertex 2.09057 -19.8904 2.5
    endloop
  endfacet
  facet normal 0 0 1
    outer loop
      vertex -2.09057 -19.8904 2.5
      vertex -3.13585 -29.8357 2.5
      vertex 3.13585 -29.8357 2.5
    endloop
  endfacet
  facet normal 0 0 1
    outer loop
      vertex -6.18034 -19.0211 2.5
      vertex -3.13585 -29.8357 2.5
      vertex -2.09057 -19.8904 2.5
    endloop
  endfacet
  facet normal 0 0 1
    outer loop
      vertex -6.18034 -19.0211 2.5
      vertex -9.27051 -28.5317 2.5
      vertex -3.13585 -29.8357 2.5
    endloop
  endfacet
  facet normal 0 0 1
    outer loop
      vertex -10 -17.3205 2.5
      vertex -9.27051 -28.5317 2.5
      vertex -6.18034 -19.0211 2.5
    endloop
  endfacet
  facet normal 0 0 1
    outer loop
      vertex -15 -25.9808 2.5
      vertex -10 -17.3205 2.5
      vertex -13.3826 -14.8629 2.5
    endloop
  endfacet
  facet normal 0 0 1
    outer loop
      vertex -10 -17.3205 2.5
      vertex -15 -25.9808 2.5
      vertex -9.27051 -28.5317 2.5
    endloop
  endfacet
  facet normal 0 0 1
    outer loop
      vertex -20.0739 -22.2943 2.5
      vertex -13.3826 -14.8629 2.5
      vertex -16.1803 -11.7557 2.5
    endloop
  endfacet
  facet normal 0 0 1
    outer loop
      vertex -24.2705 -17.6336 2.5
      vertex -16.1803 -11.7557 2.5
      vertex -18.2709 -8.13473 2.5
    endloop
  endfacet
  facet normal 0 0 1
    outer loop
      vertex -27.4064 -12.2021 2.5
      vertex -18.2709 -8.13473 2.5
      vertex -19.563 -4.15823 2.5
    endloop
  endfacet
  facet normal 0 0 1
    outer loop
      vertex -13.3826 -14.8629 2.5
      vertex -20.0739 -22.2943 2.5
      vertex -15 -25.9808 2.5
    endloop
  endfacet
  facet normal 0 0 1
    outer loop
      vertex -29.3444 -6.23735 2.5
      vertex -19.563 -4.15823 2.5
      vertex -20 0 2.5
    endloop
  endfacet
  facet normal 0 0 1
    outer loop
      vertex -18.2709 8.13473 2.5
      vertex -27.4064 12.2021 2.5
      vertex -19.563 4.15823 2.5
    endloop
  endfacet
  facet normal -0 0 1
    outer loop
      vertex -29.3444 6.23735 2.5
      vertex -19.563 4.15823 2.5
      vertex -27.4064 12.2021 2.5
    endloop
  endfacet
  facet normal 0 0 1
    outer loop
      vertex -16.1803 -11.7557 2.5
      vertex -24.2705 -17.6336 2.5
      vertex -20.0739 -22.2943 2.5
    endloop
  endfacet
  facet normal 0 0 1
    outer loop
      vertex -19.563 4.15823 2.5
      vertex -29.3444 6.23735 2.5
      vertex -20 0 2.5
    endloop
  endfacet
  facet normal 0 0 1
    outer loop
      vertex -18.2709 -8.13473 2.5
      vertex -27.4064 -12.2021 2.5
      vertex -24.2705 -17.6336 2.5
    endloop
  endfacet
  facet normal 0 0 1
    outer loop
      vertex -30 0 2.5
      vertex -20 0 2.5
      vertex -29.3444 6.23735 2.5
    endloop
  endfacet
  facet normal 0 0 1
    outer loop
      vertex -19.563 -4.15823 2.5
      vertex -29.3444 -6.23735 2.5
      vertex -27.4064 -12.2021 2.5
    endloop
  endfacet
  facet normal 0 0 1
    outer loop
      vertex -20 0 2.5
      vertex -30 0 2.5
      vertex -29.3444 -6.23735 2.5
    endloop
  endfacet
  facet normal 0.587785 0.809017 -0
    outer loop
      vertex 13.3826 14.8629 2.5
      vertex 10 17.3205 3
      vertex 13.3826 14.8629 3
    endloop
  endfacet
  facet normal 0.587785 0.809017 0
    outer loop
      vertex 10 17.3205 3
      vertex 13.3826 14.8629 2.5
      vertex 10 17.3205 2.5
    endloop
  endfacet
  facet normal -0.866022 0.500006 0
    outer loop
      vertex -18.2709 8.13473 2.5
      vertex -16.1803 11.7557 3
      vertex -16.1803 11.7557 2.5
    endloop
  endfacet
  facet normal -0.866022 0.500006 0
    outer loop
      vertex -16.1803 11.7557 3
      vertex -18.2709 8.13473 2.5
      vertex -18.2709 8.13473 3
    endloop
  endfacet
  facet normal 0.994523 -0.104517 0
    outer loop
      vertex 19.563 -4.15823 3
      vertex 20 0 2.5
      vertex 20 0 3
    endloop
  endfacet
  facet normal 0.994523 -0.104517 0
    outer loop
      vertex 20 0 2.5
      vertex 19.563 -4.15823 3
      vertex 19.563 -4.15823 2.5
    endloop
  endfacet
  facet normal 0.587785 -0.809017 0
    outer loop
      vertex 10 -17.3205 2.5
      vertex 13.3826 -14.8629 3
      vertex 10 -17.3205 3
    endloop
  endfacet
  facet normal 0.587785 -0.809017 0
    outer loop
      vertex 13.3826 -14.8629 3
      vertex 10 -17.3205 2.5
      vertex 13.3826 -14.8629 2.5
    endloop
  endfacet
  facet normal 0.866022 0.500006 0
    outer loop
      vertex 18.2709 8.13473 3
      vertex 16.1803 11.7557 2.5
      vertex 16.1803 11.7557 3
    endloop
  endfacet
  facet normal 0.866022 0.500006 0
    outer loop
      vertex 16.1803 11.7557 2.5
      vertex 18.2709 8.13473 3
      vertex 18.2709 8.13473 2.5
    endloop
  endfacet
  facet normal -0.994523 0.104517 0
    outer loop
      vertex -20 0 2.5
      vertex -19.563 4.15823 3
      vertex -19.563 4.15823 2.5
    endloop
  endfacet
  facet normal -0.994523 0.104517 0
    outer loop
      vertex -19.563 4.15823 3
      vertex -20 0 2.5
      vertex -20 0 3
    endloop
  endfacet
  facet normal 0.994523 0.104517 0
    outer loop
      vertex 20 0 3
      vertex 19.563 4.15823 2.5
      vertex 19.563 4.15823 3
    endloop
  endfacet
  facet normal 0.994523 0.104517 0
    outer loop
      vertex 19.563 4.15823 2.5
      vertex 20 0 3
      vertex 20 0 2.5
    endloop
  endfacet
  facet normal -0.866022 -0.500006 0
    outer loop
      vertex -16.1803 -11.7557 2.5
      vertex -18.2709 -8.13473 3
      vertex -18.2709 -8.13473 2.5
    endloop
  endfacet
  facet normal -0.866022 -0.500006 0
    outer loop
      vertex -18.2709 -8.13473 3
      vertex -16.1803 -11.7557 2.5
      vertex -16.1803 -11.7557 3
    endloop
  endfacet
  facet normal -0.743149 -0.669126 0
    outer loop
      vertex -13.3826 -14.8629 2.5
      vertex -16.1803 -11.7557 3
      vertex -16.1803 -11.7557 2.5
    endloop
  endfacet
  facet normal -0.743149 -0.669126 0
    outer loop
      vertex -16.1803 -11.7557 3
      vertex -13.3826 -14.8629 2.5
      vertex -13.3826 -14.8629 3
    endloop
  endfacet
  facet normal -0.951053 0.309029 0
    outer loop
      vertex -19.563 4.15823 2.5
      vertex -18.2709 8.13473 3
      vertex -18.2709 8.13473 2.5
    endloop
  endfacet
  facet normal -0.951053 0.309029 0
    outer loop
      vertex -18.2709 8.13473 3
      vertex -19.563 4.15823 2.5
      vertex -19.563 4.15823 3
    endloop
  endfacet
  facet normal 0 -1 0
    outer loop
      vertex -2.09057 -19.8904 2.5
      vertex 2.09057 -19.8904 3
      vertex -2.09057 -19.8904 3
    endloop
  endfacet
  facet normal 0 -1 -0
    outer loop
      vertex 2.09057 -19.8904 3
      vertex -2.09057 -19.8904 2.5
      vertex 2.09057 -19.8904 2.5
    endloop
  endfacet
  facet normal 0.406732 -0.913547 0
    outer loop
      vertex 6.18034 -19.0211 2.5
      vertex 10 -17.3205 3
      vertex 6.18034 -19.0211 3
    endloop
  endfacet
  facet normal 0.406732 -0.913547 0
    outer loop
      vertex 10 -17.3205 3
      vertex 6.18034 -19.0211 2.5
      vertex 10 -17.3205 2.5
    endloop
  endfacet
  facet normal -0.20791 0.978148 0
    outer loop
      vertex -2.09057 19.8904 2.5
      vertex -6.18034 19.0211 3
      vertex -2.09057 19.8904 3
    endloop
  endfacet
  facet normal -0.20791 0.978148 0
    outer loop
      vertex -6.18034 19.0211 3
      vertex -2.09057 19.8904 2.5
      vertex -6.18034 19.0211 2.5
    endloop
  endfacet
  facet normal 0.951053 0.309029 0
    outer loop
      vertex 19.563 4.15823 3
      vertex 18.2709 8.13473 2.5
      vertex 18.2709 8.13473 3
    endloop
  endfacet
  facet normal 0.951053 0.309029 0
    outer loop
      vertex 18.2709 8.13473 2.5
      vertex 19.563 4.15823 3
      vertex 19.563 4.15823 2.5
    endloop
  endfacet
  facet normal 0.20791 -0.978148 0
    outer loop
      vertex 2.09057 -19.8904 2.5
      vertex 6.18034 -19.0211 3
      vertex 2.09057 -19.8904 3
    endloop
  endfacet
  facet normal 0.20791 -0.978148 0
    outer loop
      vertex 6.18034 -19.0211 3
      vertex 2.09057 -19.8904 2.5
      vertex 6.18034 -19.0211 2.5
    endloop
  endfacet
  facet normal 0.951053 -0.309029 0
    outer loop
      vertex 18.2709 -8.13473 3
      vertex 19.563 -4.15823 2.5
      vertex 19.563 -4.15823 3
    endloop
  endfacet
  facet normal 0.951053 -0.309029 0
    outer loop
      vertex 19.563 -4.15823 2.5
      vertex 18.2709 -8.13473 3
      vertex 18.2709 -8.13473 2.5
    endloop
  endfacet
  facet normal 0.406732 0.913547 -0
    outer loop
      vertex 10 17.3205 2.5
      vertex 6.18034 19.0211 3
      vertex 10 17.3205 3
    endloop
  endfacet
  facet normal 0.406732 0.913547 0
    outer loop
      vertex 6.18034 19.0211 3
      vertex 10 17.3205 2.5
      vertex 6.18034 19.0211 2.5
    endloop
  endfacet
  facet normal -0.406732 0.913547 0
    outer loop
      vertex -6.18034 19.0211 2.5
      vertex -10 17.3205 3
      vertex -6.18034 19.0211 3
    endloop
  endfacet
  facet normal -0.406732 0.913547 0
    outer loop
      vertex -10 17.3205 3
      vertex -6.18034 19.0211 2.5
      vertex -10 17.3205 2.5
    endloop
  endfacet
  facet normal 0.866022 -0.500006 0
    outer loop
      vertex 16.1803 -11.7557 3
      vertex 18.2709 -8.13473 2.5
      vertex 18.2709 -8.13473 3
    endloop
  endfacet
  facet normal 0.866022 -0.500006 0
    outer loop
      vertex 18.2709 -8.13473 2.5
      vertex 16.1803 -11.7557 3
      vertex 16.1803 -11.7557 2.5
    endloop
  endfacet
  facet normal -0.406732 -0.913547 0
    outer loop
      vertex -10 -17.3205 2.5
      vertex -6.18034 -19.0211 3
      vertex -10 -17.3205 3
    endloop
  endfacet
  facet normal -0.406732 -0.913547 -0
    outer loop
      vertex -6.18034 -19.0211 3
      vertex -10 -17.3205 2.5
      vertex -6.18034 -19.0211 2.5
    endloop
  endfacet
  facet normal 0 1 -0
    outer loop
      vertex 2.09057 19.8904 2.5
      vertex -2.09057 19.8904 3
      vertex 2.09057 19.8904 3
    endloop
  endfacet
  facet normal 0 1 0
    outer loop
      vertex -2.09057 19.8904 3
      vertex 2.09057 19.8904 2.5
      vertex -2.09057 19.8904 2.5
    endloop
  endfacet
  facet normal 0.743149 -0.669126 0
    outer loop
      vertex 13.3826 -14.8629 3
      vertex 16.1803 -11.7557 2.5
      vertex 16.1803 -11.7557 3
    endloop
  endfacet
  facet normal 0.743149 -0.669126 0
    outer loop
      vertex 16.1803 -11.7557 2.5
      vertex 13.3826 -14.8629 3
      vertex 13.3826 -14.8629 2.5
    endloop
  endfacet
  facet normal 0.743149 0.669126 0
    outer loop
      vertex 16.1803 11.7557 3
      vertex 13.3826 14.8629 2.5
      vertex 13.3826 14.8629 3
    endloop
  endfacet
  facet normal 0.743149 0.669126 0
    outer loop
      vertex 13.3826 14.8629 2.5
      vertex 16.1803 11.7557 3
      vertex 16.1803 11.7557 2.5
    endloop
  endfacet
  facet normal 0.20791 0.978148 -0
    outer loop
      vertex 6.18034 19.0211 2.5
      vertex 2.09057 19.8904 3
      vertex 6.18034 19.0211 3
    endloop
  endfacet
  facet normal 0.20791 0.978148 0
    outer loop
      vertex 2.09057 19.8904 3
      vertex 6.18034 19.0211 2.5
      vertex 2.09057 19.8904 2.5
    endloop
  endfacet
  facet normal -0.951053 -0.309029 0
    outer loop
      vertex -18.2709 -8.13473 2.5
      vertex -19.563 -4.15823 3
      vertex -19.563 -4.15823 2.5
    endloop
  endfacet
  facet normal -0.951053 -0.309029 0
    outer loop
      vertex -19.563 -4.15823 3
      vertex -18.2709 -8.13473 2.5
      vertex -18.2709 -8.13473 3
    endloop
  endfacet
  facet normal -0.587785 -0.809017 0
    outer loop
      vertex -13.3826 -14.8629 2.5
      vertex -10 -17.3205 3
      vertex -13.3826 -14.8629 3
    endloop
  endfacet
  facet normal -0.587785 -0.809017 -0
    outer loop
      vertex -10 -17.3205 3
      vertex -13.3826 -14.8629 2.5
      vertex -10 -17.3205 2.5
    endloop
  endfacet
  facet normal -0.743149 0.669126 0
    outer loop
      vertex -16.1803 11.7557 2.5
      vertex -13.3826 14.8629 3
      vertex -13.3826 14.8629 2.5
    endloop
  endfacet
  facet normal -0.743149 0.669126 0
    outer loop
      vertex -13.3826 14.8629 3
      vertex -16.1803 11.7557 2.5
      vertex -16.1803 11.7557 3
    endloop
  endfacet
  facet normal -0.587785 0.809017 0
    outer loop
      vertex -10 17.3205 2.5
      vertex -13.3826 14.8629 3
      vertex -10 17.3205 3
    endloop
  endfacet
  facet normal -0.587785 0.809017 0
    outer loop
      vertex -13.3826 14.8629 3
      vertex -10 17.3205 2.5
      vertex -13.3826 14.8629 2.5
    endloop
  endfacet
  facet normal -0.994523 -0.104517 0
    outer loop
      vertex -19.563 -4.15823 2.5
      vertex -20 0 3
      vertex -20 0 2.5
    endloop
  endfacet
  facet normal -0.994523 -0.104517 0
    outer loop
      vertex -20 0 3
      vertex -19.563 -4.15823 2.5
      vertex -19.563 -4.15823 3
    endloop
  endfacet
  facet normal -0.20791 -0.978148 0
    outer loop
      vertex -6.18034 -19.0211 2.5
      vertex -2.09057 -19.8904 3
      vertex -6.18034 -19.0211 3
    endloop
  endfacet
  facet normal -0.20791 -0.978148 -0
    outer loop
      vertex -2.09057 -19.8904 3
      vertex -6.18034 -19.0211 2.5
      vertex -2.09057 -19.8904 2.5
    endloop
  endfacet
  facet normal 0 0 1
    outer loop
      vertex 19.563 4.15823 3
      vertex 9.78148 2.07912 3
      vertex 10 0 3
    endloop
  endfacet
  facet normal 0 0 1
    outer loop
      vertex 13.3826 14.8629 3
      vertex 9.13545 4.06737 3
      vertex 9.78148 2.07912 3
    endloop
  endfacet
  facet normal 0 0 1
    outer loop
      vertex 13.3826 14.8629 3
      vertex 8.09017 5.87785 3
      vertex 9.13545 4.06737 3
    endloop
  endfacet
  facet normal 0 0 1
    outer loop
      vertex 13.3826 14.8629 3
      vertex 6.69131 7.43145 3
      vertex 8.09017 5.87785 3
    endloop
  endfacet
  facet normal 0 0 1
    outer loop
      vertex 5 8.66025 3
      vertex 10 17.3205 3
      vertex 6.18034 19.0211 3
    endloop
  endfacet
  facet normal 0 0 1
    outer loop
      vertex 10 17.3205 3
      vertex 5 8.66025 3
      vertex 6.69131 7.43145 3
    endloop
  endfacet
  facet normal 0 0 1
    outer loop
      vertex 6.18034 19.0211 3
      vertex 3.09017 9.51056 3
      vertex 5 8.66025 3
    endloop
  endfacet
  facet normal 0 0 1
    outer loop
      vertex 2.09057 19.8904 3
      vertex 3.09017 9.51056 3
      vertex 6.18034 19.0211 3
    endloop
  endfacet
  facet normal 0 0 1
    outer loop
      vertex 2.09057 19.8904 3
      vertex 1.04528 9.94522 3
      vertex 3.09017 9.51056 3
    endloop
  endfacet
  facet normal 0 0 1
    outer loop
      vertex 2.09057 19.8904 3
      vertex -1.04528 9.94522 3
      vertex 1.04528 9.94522 3
    endloop
  endfacet
  facet normal -0 0 1
    outer loop
      vertex -2.09057 19.8904 3
      vertex -1.04528 9.94522 3
      vertex 2.09057 19.8904 3
    endloop
  endfacet
  facet normal 0 0 1
    outer loop
      vertex -2.09057 19.8904 3
      vertex -3.09017 9.51056 3
      vertex -1.04528 9.94522 3
    endloop
  endfacet
  facet normal -0 0 1
    outer loop
      vertex -6.18034 19.0211 3
      vertex -3.09017 9.51056 3
      vertex -2.09057 19.8904 3
    endloop
  endfacet
  facet normal 0 0 1
    outer loop
      vertex -3.09017 9.51056 3
      vertex -6.18034 19.0211 3
      vertex -5 8.66025 3
    endloop
  endfacet
  facet normal -0 0 1
    outer loop
      vertex -10 17.3205 3
      vertex -5 8.66025 3
      vertex -6.18034 19.0211 3
    endloop
  endfacet
  facet normal 0 0 1
    outer loop
      vertex -5 8.66025 3
      vertex -10 17.3205 3
      vertex -6.69131 7.43145 3
    endloop
  endfacet
  facet normal -0 0 1
    outer loop
      vertex -13.3826 14.8629 3
      vertex -6.69131 7.43145 3
      vertex -10 17.3205 3
    endloop
  endfacet
  facet normal 0 0 1
    outer loop
      vertex -6.69131 7.43145 3
      vertex -13.3826 14.8629 3
      vertex -8.09017 5.87785 3
    endloop
  endfacet
  facet normal -0 0 1
    outer loop
      vertex -16.1803 11.7557 3
      vertex -8.09017 5.87785 3
      vertex -13.3826 14.8629 3
    endloop
  endfacet
  facet normal 0 0 1
    outer loop
      vertex -8.09017 5.87785 3
      vertex -16.1803 11.7557 3
      vertex -9.13545 4.06737 3
    endloop
  endfacet
  facet normal -0 0 1
    outer loop
      vertex -18.2709 8.13473 3
      vertex -9.13545 4.06737 3
      vertex -16.1803 11.7557 3
    endloop
  endfacet
  facet normal 0 0 1
    outer loop
      vertex -9.13545 4.06737 3
      vertex -18.2709 8.13473 3
      vertex -9.78148 2.07912 3
    endloop
  endfacet
  facet normal 0 0 1
    outer loop
      vertex -10 0 3
      vertex -13.3826 -14.8629 3
      vertex -10 -17.3205 3
    endloop
  endfacet
  facet normal -0 0 1
    outer loop
      vertex -19.563 4.15823 3
      vertex -9.78148 2.07912 3
      vertex -18.2709 8.13473 3
    endloop
  endfacet
  facet normal 0 0 1
    outer loop
      vertex -10 0 3
      vertex -16.1803 -11.7557 3
      vertex -13.3826 -14.8629 3
    endloop
  endfacet
  facet normal 0 0 1
    outer loop
      vertex -9.78148 2.07912 3
      vertex -19.563 4.15823 3
      vertex -10 0 3
    endloop
  endfacet
  facet normal 0 0 1
    outer loop
      vertex -10 0 3
      vertex -18.2709 -8.13473 3
      vertex -16.1803 -11.7557 3
    endloop
  endfacet
  facet normal 0 0 1
    outer loop
      vertex -20 0 3
      vertex -10 0 3
      vertex -19.563 4.15823 3
    endloop
  endfacet
  facet normal 0 0 1
    outer loop
      vertex -10 0 3
      vertex -19.563 -4.15823 3
      vertex -18.2709 -8.13473 3
    endloop
  endfacet
  facet normal 0 0 1
    outer loop
      vertex -10 0 3
      vertex -20 0 3
      vertex -19.563 -4.15823 3
    endloop
  endfacet
  facet normal 0 0 1
    outer loop
      vertex 10 0 3
      vertex 20 0 3
      vertex 19.563 4.15823 3
    endloop
  endfacet
  facet normal 0 0 1
    outer loop
      vertex 9.78148 2.07912 3
      vertex 19.563 4.15823 3
      vertex 18.2709 8.13473 3
    endloop
  endfacet
  facet normal 0 0 1
    outer loop
      vertex 20 0 3
      vertex 10 0 3
      vertex 19.563 -4.15823 3
    endloop
  endfacet
  facet normal 0 0 1
    outer loop
      vertex 9.78148 2.07912 3
      vertex 18.2709 8.13473 3
      vertex 16.1803 11.7557 3
    endloop
  endfacet
  facet normal -0 0 1
    outer loop
      vertex 9.78148 -2.07912 3
      vertex 19.563 -4.15823 3
      vertex 10 0 3
    endloop
  endfacet
  facet normal 0 0 1
    outer loop
      vertex 9.78148 2.07912 3
      vertex 16.1803 11.7557 3
      vertex 13.3826 14.8629 3
    endloop
  endfacet
  facet normal 0 0 1
    outer loop
      vertex 19.563 -4.15823 3
      vertex 9.78148 -2.07912 3
      vertex 18.2709 -8.13473 3
    endloop
  endfacet
  facet normal 0 0 1
    outer loop
      vertex 6.69131 7.43145 3
      vertex 13.3826 14.8629 3
      vertex 10 17.3205 3
    endloop
  endfacet
  facet normal -0 0 1
    outer loop
      vertex 9.13545 -4.06737 3
      vertex 18.2709 -8.13473 3
      vertex 9.78148 -2.07912 3
    endloop
  endfacet
  facet normal 0 0 1
    outer loop
      vertex 18.2709 -8.13473 3
      vertex 9.13545 -4.06737 3
      vertex 16.1803 -11.7557 3
    endloop
  endfacet
  facet normal -0 0 1
    outer loop
      vertex 8.09017 -5.87785 3
      vertex 16.1803 -11.7557 3
      vertex 9.13545 -4.06737 3
    endloop
  endfacet
  facet normal 0 0 1
    outer loop
      vertex 16.1803 -11.7557 3
      vertex 8.09017 -5.87785 3
      vertex 13.3826 -14.8629 3
    endloop
  endfacet
  facet normal -0 0 1
    outer loop
      vertex 6.69131 -7.43145 3
      vertex 13.3826 -14.8629 3
      vertex 8.09017 -5.87785 3
    endloop
  endfacet
  facet normal 0 0 1
    outer loop
      vertex 13.3826 -14.8629 3
      vertex 6.69131 -7.43145 3
      vertex 10 -17.3205 3
    endloop
  endfacet
  facet normal -0 0 1
    outer loop
      vertex 5 -8.66025 3
      vertex 10 -17.3205 3
      vertex 6.69131 -7.43145 3
    endloop
  endfacet
  facet normal 0 0 1
    outer loop
      vertex 10 -17.3205 3
      vertex 5 -8.66025 3
      vertex 6.18034 -19.0211 3
    endloop
  endfacet
  facet normal -0 0 1
    outer loop
      vertex 3.09017 -9.51056 3
      vertex 6.18034 -19.0211 3
      vertex 5 -8.66025 3
    endloop
  endfacet
  facet normal 0 0 1
    outer loop
      vertex 3.09017 -9.51056 3
      vertex 2.09057 -19.8904 3
      vertex 6.18034 -19.0211 3
    endloop
  endfacet
  facet normal -0 0 1
    outer loop
      vertex 1.04528 -9.94522 3
      vertex 2.09057 -19.8904 3
      vertex 3.09017 -9.51056 3
    endloop
  endfacet
  facet normal -0 0 1
    outer loop
      vertex -1.04528 -9.94522 3
      vertex 2.09057 -19.8904 3
      vertex 1.04528 -9.94522 3
    endloop
  endfacet
  facet normal 0 0 1
    outer loop
      vertex -1.04528 -9.94522 3
      vertex -2.09057 -19.8904 3
      vertex 2.09057 -19.8904 3
    endloop
  endfacet
  facet normal 0 0 1
    outer loop
      vertex -3.09017 -9.51056 3
      vertex -2.09057 -19.8904 3
      vertex -1.04528 -9.94522 3
    endloop
  endfacet
  facet normal 0 0 1
    outer loop
      vertex -6.18034 -19.0211 3
      vertex -3.09017 -9.51056 3
      vertex -5 -8.66025 3
    endloop
  endfacet
  facet normal 0 0 1
    outer loop
      vertex -3.09017 -9.51056 3
      vertex -6.18034 -19.0211 3
      vertex -2.09057 -19.8904 3
    endloop
  endfacet
  facet normal 0 0 1
    outer loop
      vertex -10 -17.3205 3
      vertex -5 -8.66025 3
      vertex -6.69131 -7.43145 3
    endloop
  endfacet
  facet normal 0 0 1
    outer loop
      vertex -10 -17.3205 3
      vertex -6.69131 -7.43145 3
      vertex -8.09017 -5.87785 3
    endloop
  endfacet
  facet normal 0 0 1
    outer loop
      vertex -10 -17.3205 3
      vertex -8.09017 -5.87785 3
      vertex -9.13545 -4.06737 3
    endloop
  endfacet
  facet normal 0 0 1
    outer loop
      vertex -10 -17.3205 3
      vertex -9.13545 -4.06737 3
      vertex -9.78148 -2.07912 3
    endloop
  endfacet
  facet normal 0 0 1
    outer loop
      vertex -5 -8.66025 3
      vertex -10 -17.3205 3
      vertex -6.18034 -19.0211 3
    endloop
  endfacet
  facet normal 0 0 1
    outer loop
      vertex -10 -17.3205 3
      vertex -9.78148 -2.07912 3
      vertex -10 0 3
    endloop
  endfacet
  facet normal 0.587783 0.809019 -0
    outer loop
      vertex 6.69131 7.43145 3
      vertex 5 8.66025 3.5
      vertex 6.69131 7.43145 3.5
    endloop
  endfacet
  facet normal 0.587783 0.809019 0
    outer loop
      vertex 5 8.66025 3.5
      vertex 6.69131 7.43145 3
      vertex 5 8.66025 3
    endloop
  endfacet
  facet normal -0.866026 0.5 0
    outer loop
      vertex -9.13545 4.06737 3
      vertex -8.09017 5.87785 3.5
      vertex -8.09017 5.87785 3
    endloop
  endfacet
  facet normal -0.866026 0.5 0
    outer loop
      vertex -8.09017 5.87785 3.5
      vertex -9.13545 4.06737 3
      vertex -9.13545 4.06737 3.5
    endloop
  endfacet
  facet normal 0.994522 -0.104526 0
    outer loop
      vertex 9.78148 -2.07912 3.5
      vertex 10 0 3
      vertex 10 0 3.5
    endloop
  endfacet
  facet normal 0.994522 -0.104526 0
    outer loop
      vertex 10 0 3
      vertex 9.78148 -2.07912 3.5
      vertex 9.78148 -2.07912 3
    endloop
  endfacet
  facet normal 0.587783 -0.809019 0
    outer loop
      vertex 5 -8.66025 3
      vertex 6.69131 -7.43145 3.5
      vertex 5 -8.66025 3.5
    endloop
  endfacet
  facet normal 0.587783 -0.809019 0
    outer loop
      vertex 6.69131 -7.43145 3.5
      vertex 5 -8.66025 3
      vertex 6.69131 -7.43145 3
    endloop
  endfacet
  facet normal 0.866026 0.5 0
    outer loop
      vertex 9.13545 4.06737 3.5
      vertex 8.09017 5.87785 3
      vertex 8.09017 5.87785 3.5
    endloop
  endfacet
  facet normal 0.866026 0.5 0
    outer loop
      vertex 8.09017 5.87785 3
      vertex 9.13545 4.06737 3.5
      vertex 9.13545 4.06737 3
    endloop
  endfacet
  facet normal -0.994522 0.104526 0
    outer loop
      vertex -10 0 3
      vertex -9.78148 2.07912 3.5
      vertex -9.78148 2.07912 3
    endloop
  endfacet
  facet normal -0.994522 0.104526 0
    outer loop
      vertex -9.78148 2.07912 3.5
      vertex -10 0 3
      vertex -10 0 3.5
    endloop
  endfacet
  facet normal 0.994522 0.104526 0
    outer loop
      vertex 10 0 3.5
      vertex 9.78148 2.07912 3
      vertex 9.78148 2.07912 3.5
    endloop
  endfacet
  facet normal 0.994522 0.104526 0
    outer loop
      vertex 9.78148 2.07912 3
      vertex 10 0 3.5
      vertex 10 0 3
    endloop
  endfacet
  facet normal -0.866026 -0.5 0
    outer loop
      vertex -8.09017 -5.87785 3
      vertex -9.13545 -4.06737 3.5
      vertex -9.13545 -4.06737 3
    endloop
  endfacet
  facet normal -0.866026 -0.5 0
    outer loop
      vertex -9.13545 -4.06737 3.5
      vertex -8.09017 -5.87785 3
      vertex -8.09017 -5.87785 3.5
    endloop
  endfacet
  facet normal -0.743147 -0.669129 0
    outer loop
      vertex -6.69131 -7.43145 3
      vertex -8.09017 -5.87785 3.5
      vertex -8.09017 -5.87785 3
    endloop
  endfacet
  facet normal -0.743147 -0.669129 0
    outer loop
      vertex -8.09017 -5.87785 3.5
      vertex -6.69131 -7.43145 3
      vertex -6.69131 -7.43145 3.5
    endloop
  endfacet
  facet normal -0.951055 0.309021 0
    outer loop
      vertex -9.78148 2.07912 3
      vertex -9.13545 4.06737 3.5
      vertex -9.13545 4.06737 3
    endloop
  endfacet
  facet normal -0.951055 0.309021 0
    outer loop
      vertex -9.13545 4.06737 3.5
      vertex -9.78148 2.07912 3
      vertex -9.78148 2.07912 3.5
    endloop
  endfacet
  facet normal 0 -1 0
    outer loop
      vertex -1.04528 -9.94522 3
      vertex 1.04528 -9.94522 3.5
      vertex -1.04528 -9.94522 3.5
    endloop
  endfacet
  facet normal 0 -1 -0
    outer loop
      vertex 1.04528 -9.94522 3.5
      vertex -1.04528 -9.94522 3
      vertex 1.04528 -9.94522 3
    endloop
  endfacet
  facet normal 0.406736 -0.913546 0
    outer loop
      vertex 3.09017 -9.51056 3
      vertex 5 -8.66025 3.5
      vertex 3.09017 -9.51056 3.5
    endloop
  endfacet
  facet normal 0.406736 -0.913546 0
    outer loop
      vertex 5 -8.66025 3.5
      vertex 3.09017 -9.51056 3
      vertex 5 -8.66025 3
    endloop
  endfacet
  facet normal -0.207914 0.978147 0
    outer loop
      vertex -1.04528 9.94522 3
      vertex -3.09017 9.51056 3.5
      vertex -1.04528 9.94522 3.5
    endloop
  endfacet
  facet normal -0.207914 0.978147 0
    outer loop
      vertex -3.09017 9.51056 3.5
      vertex -1.04528 9.94522 3
      vertex -3.09017 9.51056 3
    endloop
  endfacet
  facet normal 0.951055 0.309021 0
    outer loop
      vertex 9.78148 2.07912 3.5
      vertex 9.13545 4.06737 3
      vertex 9.13545 4.06737 3.5
    endloop
  endfacet
  facet normal 0.951055 0.309021 0
    outer loop
      vertex 9.13545 4.06737 3
      vertex 9.78148 2.07912 3.5
      vertex 9.78148 2.07912 3
    endloop
  endfacet
  facet normal 0.207914 -0.978147 0
    outer loop
      vertex 1.04528 -9.94522 3
      vertex 3.09017 -9.51056 3.5
      vertex 1.04528 -9.94522 3.5
    endloop
  endfacet
  facet normal 0.207914 -0.978147 0
    outer loop
      vertex 3.09017 -9.51056 3.5
      vertex 1.04528 -9.94522 3
      vertex 3.09017 -9.51056 3
    endloop
  endfacet
  facet normal 0.406736 0.913546 -0
    outer loop
      vertex 5 8.66025 3
      vertex 3.09017 9.51056 3.5
      vertex 5 8.66025 3.5
    endloop
  endfacet
  facet normal 0.406736 0.913546 0
    outer loop
      vertex 3.09017 9.51056 3.5
      vertex 5 8.66025 3
      vertex 3.09017 9.51056 3
    endloop
  endfacet
  facet normal -0.406736 0.913546 0
    outer loop
      vertex -3.09017 9.51056 3
      vertex -5 8.66025 3.5
      vertex -3.09017 9.51056 3.5
    endloop
  endfacet
  facet normal -0.406736 0.913546 0
    outer loop
      vertex -5 8.66025 3.5
      vertex -3.09017 9.51056 3
      vertex -5 8.66025 3
    endloop
  endfacet
  facet normal 0.866026 -0.5 0
    outer loop
      vertex 8.09017 -5.87785 3.5
      vertex 9.13545 -4.06737 3
      vertex 9.13545 -4.06737 3.5
    endloop
  endfacet
  facet normal 0.866026 -0.5 0
    outer loop
      vertex 9.13545 -4.06737 3
      vertex 8.09017 -5.87785 3.5
      vertex 8.09017 -5.87785 3
    endloop
  endfacet
  facet normal -0.406736 -0.913546 0
    outer loop
      vertex -5 -8.66025 3
      vertex -3.09017 -9.51056 3.5
      vertex -5 -8.66025 3.5
    endloop
  endfacet
  facet normal -0.406736 -0.913546 -0
    outer loop
      vertex -3.09017 -9.51056 3.5
      vertex -5 -8.66025 3
      vertex -3.09017 -9.51056 3
    endloop
  endfacet
  facet normal 0 1 -0
    outer loop
      vertex 1.04528 9.94522 3
      vertex -1.04528 9.94522 3.5
      vertex 1.04528 9.94522 3.5
    endloop
  endfacet
  facet normal 0 1 0
    outer loop
      vertex -1.04528 9.94522 3.5
      vertex 1.04528 9.94522 3
      vertex -1.04528 9.94522 3
    endloop
  endfacet
  facet normal 0.743147 -0.669129 0
    outer loop
      vertex 6.69131 -7.43145 3.5
      vertex 8.09017 -5.87785 3
      vertex 8.09017 -5.87785 3.5
    endloop
  endfacet
  facet normal 0.743147 -0.669129 0
    outer loop
      vertex 8.09017 -5.87785 3
      vertex 6.69131 -7.43145 3.5
      vertex 6.69131 -7.43145 3
    endloop
  endfacet
  facet normal 0.743147 0.669129 0
    outer loop
      vertex 8.09017 5.87785 3.5
      vertex 6.69131 7.43145 3
      vertex 6.69131 7.43145 3.5
    endloop
  endfacet
  facet normal 0.743147 0.669129 0
    outer loop
      vertex 6.69131 7.43145 3
      vertex 8.09017 5.87785 3.5
      vertex 8.09017 5.87785 3
    endloop
  endfacet
  facet normal 0.207914 0.978147 -0
    outer loop
      vertex 3.09017 9.51056 3
      vertex 1.04528 9.94522 3.5
      vertex 3.09017 9.51056 3.5
    endloop
  endfacet
  facet normal 0.207914 0.978147 0
    outer loop
      vertex 1.04528 9.94522 3.5
      vertex 3.09017 9.51056 3
      vertex 1.04528 9.94522 3
    endloop
  endfacet
  facet normal -0.951055 -0.309021 0
    outer loop
      vertex -9.13545 -4.06737 3
      vertex -9.78148 -2.07912 3.5
      vertex -9.78148 -2.07912 3
    endloop
  endfacet
  facet normal -0.951055 -0.309021 0
    outer loop
      vertex -9.78148 -2.07912 3.5
      vertex -9.13545 -4.06737 3
      vertex -9.13545 -4.06737 3.5
    endloop
  endfacet
  facet normal -0.587783 -0.809019 0
    outer loop
      vertex -6.69131 -7.43145 3
      vertex -5 -8.66025 3.5
      vertex -6.69131 -7.43145 3.5
    endloop
  endfacet
  facet normal -0.587783 -0.809019 -0
    outer loop
      vertex -5 -8.66025 3.5
      vertex -6.69131 -7.43145 3
      vertex -5 -8.66025 3
    endloop
  endfacet
  facet normal -0.743147 0.669129 0
    outer loop
      vertex -8.09017 5.87785 3
      vertex -6.69131 7.43145 3.5
      vertex -6.69131 7.43145 3
    endloop
  endfacet
  facet normal -0.743147 0.669129 0
    outer loop
      vertex -6.69131 7.43145 3.5
      vertex -8.09017 5.87785 3
      vertex -8.09017 5.87785 3.5
    endloop
  endfacet
  facet normal -0.587783 0.809019 0
    outer loop
      vertex -5 8.66025 3
      vertex -6.69131 7.43145 3.5
      vertex -5 8.66025 3.5
    endloop
  endfacet
  facet normal -0.587783 0.809019 0
    outer loop
      vertex -6.69131 7.43145 3.5
      vertex -5 8.66025 3
      vertex -6.69131 7.43145 3
    endloop
  endfacet
  facet normal -0.994522 -0.104526 0
    outer loop
      vertex -9.78148 -2.07912 3
      vertex -10 0 3.5
      vertex -10 0 3
    endloop
  endfacet
  facet normal -0.994522 -0.104526 0
    outer loop
      vertex -10 0 3.5
      vertex -9.78148 -2.07912 3
      vertex -9.78148 -2.07912 3.5
    endloop
  endfacet
  facet normal 0.951055 -0.309021 0
    outer loop
      vertex 9.13545 -4.06737 3.5
      vertex 9.78148 -2.07912 3
      vertex 9.78148 -2.07912 3.5
    endloop
  endfacet
  facet normal 0.951055 -0.309021 0
    outer loop
      vertex 9.78148 -2.07912 3
      vertex 9.13545 -4.06737 3.5
      vertex 9.13545 -4.06737 3
    endloop
  endfacet
  facet normal -0.207914 -0.978147 0
    outer loop
      vertex -3.09017 -9.51056 3
      vertex -1.04528 -9.94522 3.5
      vertex -3.09017 -9.51056 3.5
    endloop
  endfacet
  facet normal -0.207914 -0.978147 -0
    outer loop
      vertex -1.04528 -9.94522 3.5
      vertex -3.09017 -9.51056 3
      vertex -1.04528 -9.94522 3
    endloop
  endfacet
  facet normal 0 0 1
    outer loop
      vertex 9.78148 2.07912 3.5
      vertex 9.78148 -2.07912 3.5
      vertex 10 0 3.5
    endloop
  endfacet
  facet normal 0 0 1
    outer loop
      vertex 9.13545 4.06737 3.5
      vertex 9.78148 -2.07912 3.5
      vertex 9.78148 2.07912 3.5
    endloop
  endfacet
  facet normal 0 0 1
    outer loop
      vertex 9.13545 4.06737 3.5
      vertex 9.13545 -4.06737 3.5
      vertex 9.78148 -2.07912 3.5
    endloop
  endfacet
  facet normal 0 0 1
    outer loop
      vertex 8.09017 5.87785 3.5
      vertex 9.13545 -4.06737 3.5
      vertex 9.13545 4.06737 3.5
    endloop
  endfacet
  facet normal 0 0 1
    outer loop
      vertex 8.09017 5.87785 3.5
      vertex 8.09017 -5.87785 3.5
      vertex 9.13545 -4.06737 3.5
    endloop
  endfacet
  facet normal 0 0 1
    outer loop
      vertex 6.69131 7.43145 3.5
      vertex 8.09017 -5.87785 3.5
      vertex 8.09017 5.87785 3.5
    endloop
  endfacet
  facet normal 0 0 1
    outer loop
      vertex 6.69131 7.43145 3.5
      vertex 6.69131 -7.43145 3.5
      vertex 8.09017 -5.87785 3.5
    endloop
  endfacet
  facet normal 0 0 1
    outer loop
      vertex 5 8.66025 3.5
      vertex 6.69131 -7.43145 3.5
      vertex 6.69131 7.43145 3.5
    endloop
  endfacet
  facet normal 0 0 1
    outer loop
      vertex 5 8.66025 3.5
      vertex 5 -8.66025 3.5
      vertex 6.69131 -7.43145 3.5
    endloop
  endfacet
  facet normal 0 0 1
    outer loop
      vertex 3.09017 9.51056 3.5
      vertex 5 -8.66025 3.5
      vertex 5 8.66025 3.5
    endloop
  endfacet
  facet normal 0 0 1
    outer loop
      vertex 3.09017 9.51056 3.5
      vertex 3.09017 -9.51056 3.5
      vertex 5 -8.66025 3.5
    endloop
  endfacet
  facet normal 0 0 1
    outer loop
      vertex 1.04528 9.94522 3.5
      vertex 3.09017 -9.51056 3.5
      vertex 3.09017 9.51056 3.5
    endloop
  endfacet
  facet normal 0 0 1
    outer loop
      vertex 1.04528 9.94522 3.5
      vertex 1.04528 -9.94522 3.5
      vertex 3.09017 -9.51056 3.5
    endloop
  endfacet
  facet normal -0 0 1
    outer loop
      vertex -1.04528 9.94522 3.5
      vertex 1.04528 -9.94522 3.5
      vertex 1.04528 9.94522 3.5
    endloop
  endfacet
  facet normal 0 0 1
    outer loop
      vertex -1.04528 9.94522 3.5
      vertex -1.04528 -9.94522 3.5
      vertex 1.04528 -9.94522 3.5
    endloop
  endfacet
  facet normal -0 0 1
    outer loop
      vertex -3.09017 9.51056 3.5
      vertex -1.04528 -9.94522 3.5
      vertex -1.04528 9.94522 3.5
    endloop
  endfacet
  facet normal 0 0 1
    outer loop
      vertex -3.09017 9.51056 3.5
      vertex -3.09017 -9.51056 3.5
      vertex -1.04528 -9.94522 3.5
    endloop
  endfacet
  facet normal -0 0 1
    outer loop
      vertex -5 8.66025 3.5
      vertex -3.09017 -9.51056 3.5
      vertex -3.09017 9.51056 3.5
    endloop
  endfacet
  facet normal 0 0 1
    outer loop
      vertex -5 8.66025 3.5
      vertex -5 -8.66025 3.5
      vertex -3.09017 -9.51056 3.5
    endloop
  endfacet
  facet normal -0 0 1
    outer loop
      vertex -6.69131 7.43145 3.5
      vertex -5 -8.66025 3.5
      vertex -5 8.66025 3.5
    endloop
  endfacet
  facet normal 0 0 1
    outer loop
      vertex -6.69131 7.43145 3.5
      vertex -6.69131 -7.43145 3.5
      vertex -5 -8.66025 3.5
    endloop
  endfacet
  facet normal -0 0 1
    outer loop
      vertex -8.09017 5.87785 3.5
      vertex -6.69131 -7.43145 3.5
      vertex -6.69131 7.43145 3.5
    endloop
  endfacet
  facet normal 0 0 1
    outer loop
      vertex -8.09017 5.87785 3.5
      vertex -8.09017 -5.87785 3.5
      vertex -6.69131 -7.43145 3.5
    endloop
  endfacet
  facet normal -0 0 1
    outer loop
      vertex -9.13545 4.06737 3.5
      vertex -8.09017 -5.87785 3.5
      vertex -8.09017 5.87785 3.5
    endloop
  endfacet
  facet normal 0 0 1
    outer loop
      vertex -9.13545 4.06737 3.5
      vertex -9.13545 -4.06737 3.5
      vertex -8.09017 -5.87785 3.5
    endloop
  endfacet
  facet normal -0 0 1
    outer loop
      vertex -9.78148 2.07912 3.5
      vertex -9.13545 -4.06737 3.5
      vertex -9.13545 4.06737 3.5
    endloop
  endfacet
  facet normal 0 0 1
    outer loop
      vertex -9.78148 2.07912 3.5
      vertex -9.78148 -2.07912 3.5
      vertex -9.13545 -4.06737 3.5
    endloop
  endfacet
  facet normal 0 -0 1
    outer loop
      vertex -9.78148 -2.07912 3.5
      vertex -9.78148 2.07912 3.5
      vertex -10 0 3.5
    endloop
  endfacet
  facet normal 1 0 0
    outer loop
      vertex 15 40.75 4
      vertex 15 39.25 4
      vertex 15 40.75 2
    endloop
  endfacet
  facet normal 1 -0 0
    outer loop
      vertex 15 40.75 2
      vertex 15 42 0
      vertex 15 42 2
    endloop
  endfacet
  facet normal 1 0 0
    outer loop
      vertex 15 39.25 2
      vertex 15 40.75 2
      vertex 15 39.25 4
    endloop
  endfacet
  facet normal 1 0 0
    outer loop
      vertex 15 40.75 2
      vertex 15 39.25 2
      vertex 15 42 0
    endloop
  endfacet
  facet normal 1 0 0
    outer loop
      vertex 15 38 0
      vertex 15 39.25 2
      vertex 15 38 2
    endloop
  endfacet
  facet normal 1 0 0
    outer loop
      vertex 15 39.25 2
      vertex 15 38 0
      vertex 15 42 0
    endloop
  endfacet
  facet normal -0 0 1
    outer loop
      vertex -15 40.75 4
      vertex 15 39.25 4
      vertex 15 40.75 4
    endloop
  endfacet
  facet normal 0 0 1
    outer loop
      vertex 15 39.25 4
      vertex -15 40.75 4
      vertex -15 39.25 4
    endloop
  endfacet
  facet normal -1 0 0
    outer loop
      vertex -15 42 0
      vertex -15 40.75 2
      vertex -15 42 2
    endloop
  endfacet
  facet normal -1 0 0
    outer loop
      vertex -15 40.75 2
      vertex -15 39.25 2
      vertex -15 40.75 4
    endloop
  endfacet
  facet normal -1 0 0
    outer loop
      vertex -15 42 0
      vertex -15 39.25 2
      vertex -15 40.75 2
    endloop
  endfacet
  facet normal -1 0 0
    outer loop
      vertex -15 38 0
      vertex -15 39.25 2
      vertex -15 42 0
    endloop
  endfacet
  facet normal -1 -0 0
    outer loop
      vertex -15 39.25 2
      vertex -15 38 0
      vertex -15 38 2
    endloop
  endfacet
  facet normal -1 -0 0
    outer loop
      vertex -15 40.75 4
      vertex -15 39.25 2
      vertex -15 39.25 4
    endloop
  endfacet
  facet normal 0 1 -0
    outer loop
      vertex 15 40.75 2
      vertex -15 40.75 4
      vertex 15 40.75 4
    endloop
  endfacet
  facet normal 0 1 0
    outer loop
      vertex -15 40.75 4
      vertex 15 40.75 2
      vertex -15 40.75 2
    endloop
  endfacet
  facet normal 0 -1 0
    outer loop
      vertex -15 39.25 2
      vertex 15 39.25 4
      vertex -15 39.25 4
    endloop
  endfacet
  facet normal 0 -1 -0
    outer loop
      vertex 15 39.25 4
      vertex -15 39.25 2
      vertex 15 39.25 2
    endloop
  endfacet
  facet normal 0 1 -0
    outer loop
      vertex 15 42 0
      vertex -15 42 2
      vertex 15 42 2
    endloop
  endfacet
  facet normal 0 1 0
    outer loop
      vertex -15 42 2
      vertex 15 42 0
      vertex -15 42 0
    endloop
  endfacet
  facet normal 0 -1 0
    outer loop
      vertex -15 38 0
      vertex -12.4556 38 2
      vertex -15 38 2
    endloop
  endfacet
  facet normal 0 -1 -0
    outer loop
      vertex -12.4556 38 2
      vertex -15 38 0
      vertex -12.4556 38 0
    endloop
  endfacet
  facet normal 0 -1 0
    outer loop
      vertex 12.4556 38 0
      vertex 15 38 2
      vertex 12.4556 38 2
    endloop
  endfacet
  facet normal 0 -1 -0
    outer loop
      vertex 15 38 2
      vertex 12.4556 38 0
      vertex 15 38 0
    endloop
  endfacet
endsolid OpenSCAD_Model
